<svg xmlns="http://www.w3.org/2000/svg" xmlns:xlink="http://www.w3.org/1999/xlink" version="1.1" x="0px" y="0px" viewBox="0 0 100 125" enable-background="new 0 0 100 100" xml:space="preserve"><g><rect x="-192" width="185" height="99"/><rect y="-36" width="100" height="30"/><text transform="matrix(1 0 0 1 66 -19.5)" fill="#000000" font-family="'Helvetica'" font-size="2.4">http://thenounproject.com</text><text transform="matrix(1 0 0 1 7.166 -24.5)"><tspan x="0" y="0" fill="#000000" font-family="'Helvetica-Bold'" font-size="6.1578">The Noun Project</tspan><tspan x="1.12" y="4.8" fill="#000000" font-family="'Helvetica-Bold'" font-size="4">Icon Template</tspan></text><text transform="matrix(1 0 0 1 -178.5 10.5)" fill="#000000" font-family="'Helvetica-Bold'" font-size="6.1578">Reminders</text><line fill="#000000" stroke="#FFFFFF" stroke-miterlimit="10" x1="8" y1="-14.5" x2="18" y2="-14.5"/><line fill="#000000" stroke="#FFFFFF" stroke-miterlimit="10" x1="-179" y1="16.5" x2="-162" y2="16.5"/><g><g><g><rect x="-170.802" y="31.318" fill="#000000" width="8.721" height="8.642"/><path fill="#000000" d="M-164.455,42.312h4.747v-4.703h-4.747V42.312z M-159.266,42.749h-5.63V37.17h5.63V42.749      L-159.266,42.749z M-166.221,44.062h8.279v-8.203h-8.279V44.062L-166.221,44.062z M-157.5,44.5h-9.163v-9.079h9.163V44.5      L-157.5,44.5z"/><polygon fill="#000000" points="-166.149,44.133 -166.292,43.991 -158.013,35.787 -157.871,35.929     "/></g></g></g><rect x="-179" y="58" fill="none" width="35" height="32.5"/><text transform="matrix(1 0 0 1 -179 60.1572)"><tspan x="0" y="0" fill="#000000" font-family="'Helvetica-Bold'" font-size="3">Strokes</tspan><tspan x="0" y="5" fill="#000000" font-family="'Helvetica'" font-size="2.4">Try to keep strokes at 4px</tspan><tspan x="0" y="10" fill="#000000" font-family="'Helvetica'" font-size="2.4">Minimum stroke weight is 2px</tspan><tspan x="0" y="14.5" fill="#000000" font-family="'Helvetica'" font-size="2.4">For thicker strokes use even </tspan><tspan x="0" y="17.5" fill="#000000" font-family="'Helvetica'" font-size="2.4">numbers: 6px, 8px etc.</tspan><tspan x="0" y="22" fill="#000000" font-family="'Helvetica-Bold'" font-size="2.4">Remember to expand strokes </tspan><tspan x="0" y="25" fill="#000000" font-family="'Helvetica-Bold'" font-size="2.4">before saving as an SVG </tspan></text><rect x="-136.5" y="58" fill="none" width="35" height="32.5"/><text transform="matrix(1 0 0 1 -136.5 60.1572)"><tspan x="0" y="0" fill="#000000" font-family="'Helvetica-Bold'" font-size="3">Size</tspan><tspan x="0" y="5" fill="#000000" font-family="'Helvetica'" font-size="2.4">Cannot be wider or taller than </tspan><tspan x="0" y="8.5" fill="#000000" font-family="'Helvetica'" font-size="2.4">100px (artboard size)</tspan><tspan x="0" y="13.5" fill="#000000" font-family="'Helvetica'" font-size="2.4">Scale your icon to fill as much of </tspan><tspan x="0" y="16.5" fill="#000000" font-family="'Helvetica'" font-size="2.4">the artboard as possible</tspan></text><rect x="-94" y="58" fill="none" width="35" height="32.5"/><text transform="matrix(1 0 0 1 -94 60.1572)"><tspan x="0" y="0" fill="#000000" font-family="'Helvetica-Bold'" font-size="3">Ungroup</tspan><tspan x="0" y="5" fill="#000000" font-family="'Helvetica'" font-size="2.4">If your design has more than one </tspan><tspan x="0" y="8" fill="#000000" font-family="'Helvetica'" font-size="2.4">shape, make sure to ungroup</tspan></text><rect x="-50" y="58" fill="none" width="35" height="32.5"/><text transform="matrix(1 0 0 1 -50 60.1572)"><tspan x="0" y="0" fill="#000000" font-family="'Helvetica-Bold'" font-size="3">Save as</tspan><tspan x="0" y="5" fill="#000000" font-family="'Helvetica'" font-size="2.4">Save as .SVG and make sure </tspan><tspan x="0" y="8" fill="#000000" font-family="'Helvetica'" font-size="2.4">“Use Artboards” is checked</tspan></text><text transform="matrix(1.0074 0 0 1 -125.542 30.5933)" fill="#000000" font-family="'Helvetica'" font-size="2.5731">100px</text><text transform="matrix(1.0074 0 0 1 -41 39)" fill="#000000" font-family="'Helvetica-Bold'" font-size="5.1462">.SVG</text><rect x="-126.514" y="34.815" fill="#000000" width="10.261" height="10.185"/><rect x="-126.477" y="31.766" fill="#000000" width="0.522" height="2.337"/><rect x="-116.812" y="31.766" fill="#000000" width="0.523" height="2.337"/><rect x="-127" y="32.337" fill="#000000" width="11.233" height="0.572"/><g><rect x="-83.805" y="33.844" fill="#000000" width="10.305" height="10.156"/><rect x="-76.809" y="28.707" fill="#000000" width="3.308" height="3.261"/></g><rect x="-178.5" y="22.5" fill="#000000" stroke="#FFFFFF" stroke-miterlimit="10" width="30" height="30"/><rect x="-136.5" y="22.5" fill="#000000" stroke="#FFFFFF" stroke-miterlimit="10" width="30" height="30"/><rect x="-93.5" y="22.5" fill="#000000" stroke="#FFFFFF" stroke-miterlimit="10" width="30" height="30"/><rect x="-49.5" y="22.5" fill="#000000" stroke="#FFFFFF" stroke-miterlimit="10" width="30" height="30"/></g><g><path opacity="0.48" d="M60.044,19.257c-0.005-0.003-0.01-0.005-0.015-0.008c-0.002,0.004-0.004,0.008-0.006,0.012   C60.029,19.26,60.037,19.259,60.044,19.257z"/><path d="M71.904,45.784c-2.846,1.382-4.373,3.146-7.176,4.547c-1.819,0.91-5.136,0-8.268-0.504   c-3.135-0.505-8.606-0.304-11.544,4.952c-2.544,4.555-1.402,1.821-1.402,1.821s-1.111-11.067-1.313-12.358   C42,42.953,43.881,28.196,45.417,27.388c1.536-0.809,5.174-0.102,7.431-1.247c2.258-1.145,5.223-1.954,5.223-1.954   s0.91,0.505,1.685,0.168c0.775-0.337,2.021-1.213,2.392-1.381c0.372-0.168,1.06-1.246,0.784-1.954   c-0.279-0.708-1.491-1.92-2.47-1.82c-0.196,0.021-0.323,0.04-0.417,0.056c0.012,0.01,0.027,0.011,0.037,0.024   c0.049,0.068,0.033,0.163-0.035,0.211c-0.022,0.017-2.261,1.644-1.86,3.208c0.021,0.082-0.027,0.164-0.108,0.185   c-0.013,0.003-0.025,0.004-0.038,0.004c-0.067,0-0.129-0.045-0.147-0.114c-0.451-1.765,1.879-3.459,1.978-3.53   c0.052-0.037,0.111-0.027,0.16,0.003c0.198-0.33,0.751-1.317,0.669-1.902c-0.103-0.707-1.213-2.796-2.189-3.908   s-2.965-3.773-4.279-3.672c-1.315,0.101-1.28,0.236-1.28,0.236s-1.012-1.482-2.393-0.842c-1.38,0.64-1.853,1.247-1.853,1.247   s-2.459,1.111-3.065,1.887c-0.606,0.775-2.628,1.55-3.135,2.358c-0.504,0.809-3.098,2.864-3.94,4.211   c-0.843,1.348-2.292,3.302-2.864,4.078c-0.572,0.774-0.708,2.223-0.91,2.998c-0.202,0.775-3.435,11.118-4.244,12.331   c-0.808,1.213-5.728,11.186-6.369,12.667c-0.639,1.482-0.572,4.245-0.976,5.29c-0.405,1.044-0.606,4.952-0.134,7.176   c0.472,2.225,0.202,4.649-0.034,5.492s-2.257,3.942,0.741,6.368c2.997,2.425,4.885,3.975,7.514,3.875   c2.627-0.102,17.99,0.303,20.147,0.167c2.155-0.134,7.108-0.707,9.769-2.358c2.662-1.65,8.627-4.75,10.108-4.582   c0,0,2.392,5.829,3.538,7.177c1.146,1.348,2.088,1.583,2.088,1.583h6.737l-0.138-36.062C83.536,45.062,79.527,42.079,71.904,45.784   z M53.778,11.705c0.066-0.053,0.16-0.043,0.213,0.022c0.198,0.244,4.845,6.003,4.123,8.377c-0.422,1.391-1.727,3.344-1.783,3.426   c-0.028,0.044-0.076,0.067-0.125,0.067c-0.029,0-0.06-0.008-0.086-0.025c-0.068-0.047-0.087-0.141-0.04-0.211   c0.013-0.02,1.335-1.999,1.744-3.345c0.675-2.223-4.021-8.04-4.068-8.098C53.704,11.853,53.714,11.757,53.778,11.705z    M51.654,14.003c0.079-0.025,0.163,0.016,0.19,0.092c0.014,0.034,0.083,0.173,0.191,0.393c2.254,4.548,3.154,6.952,2.833,7.563   c-0.514,0.976-2.529,2.655-2.616,2.726c-0.027,0.023-0.062,0.035-0.096,0.035c-0.045,0-0.088-0.019-0.117-0.055   c-0.054-0.064-0.045-0.16,0.021-0.213c0.02-0.017,2.055-1.71,2.539-2.634c0.149-0.283-0.021-1.606-2.835-7.287   c-0.166-0.337-0.196-0.399-0.206-0.428C51.532,14.114,51.575,14.029,51.654,14.003z M48.205,16.116   c0.057-0.062,0.152-0.065,0.214-0.008c0.79,0.736,2.333,5.19,2.117,6.109c-0.198,0.84-1.684,2.331-2.076,2.552   c-0.038,0.021-0.085,0.043-0.137,0.043c-0.018,0-0.036-0.002-0.055-0.009c-0.08-0.026-0.123-0.112-0.097-0.191   c0.02-0.062,0.074-0.101,0.135-0.104c0.249-0.121,1.75-1.578,1.934-2.36c0.191-0.813-1.326-5.163-2.029-5.818   C48.151,16.273,48.147,16.177,48.205,16.116z"/></g><text x="0" y="115" fill="#000000" font-size="5px" font-weight="bold" font-family="'Helvetica Neue', Helvetica, Arial-Unicode, Arial, Sans-serif">Created by Jurjen Versteeg</text><text x="0" y="120" fill="#000000" font-size="5px" font-weight="bold" font-family="'Helvetica Neue', Helvetica, Arial-Unicode, Arial, Sans-serif">from the Noun Project</text></svg>