<?xml version="1.0" encoding="UTF-8"?>

<svg version="1.2" baseProfile="tiny" width="210mm" height="297mm" viewBox="0 0 21000 29700" preserveAspectRatio="xMidYMid" fill-rule="evenodd" stroke-width="28.222" stroke-linejoin="round" xmlns="http://www.w3.org/2000/svg" xmlns:ooo="http://xml.openoffice.org/svg/export" xmlns:xlink="http://www.w3.org/1999/xlink" xml:space="preserve">
 <defs class="ClipPathGroup">
  <clipPath id="presentation_clip_path" clipPathUnits="userSpaceOnUse">
   <rect x="0" y="0" width="21000" height="29700"/>
  </clipPath>
 </defs>
 <defs class="TextShapeIndex">
  <g ooo:slide="id1" ooo:id-list="id3"/>
 </defs>
 <defs class="EmbeddedBulletChars">
  <g id="bullet-char-template(57356)" transform="scale(0.00048828125,-0.00048828125)">
   <path d="M 580,1141 L 1163,571 580,0 -4,571 580,1141 Z"/>
  </g>
  <g id="bullet-char-template(57354)" transform="scale(0.00048828125,-0.00048828125)">
   <path d="M 8,1128 L 1137,1128 1137,0 8,0 8,1128 Z"/>
  </g>
  <g id="bullet-char-template(10146)" transform="scale(0.00048828125,-0.00048828125)">
   <path d="M 174,0 L 602,739 174,1481 1456,739 174,0 Z M 1358,739 L 309,1346 659,739 1358,739 Z"/>
  </g>
  <g id="bullet-char-template(10132)" transform="scale(0.00048828125,-0.00048828125)">
   <path d="M 2015,739 L 1276,0 717,0 1260,543 174,543 174,936 1260,936 717,1481 1274,1481 2015,739 Z"/>
  </g>
  <g id="bullet-char-template(10007)" transform="scale(0.00048828125,-0.00048828125)">
   <path d="M 0,-2 C -7,14 -16,27 -25,37 L 356,567 C 262,823 215,952 215,954 215,979 228,992 255,992 264,992 276,990 289,987 310,991 331,999 354,1012 L 381,999 492,748 772,1049 836,1024 860,1049 C 881,1039 901,1025 922,1006 886,937 835,863 770,784 769,783 710,716 594,584 L 774,223 C 774,196 753,168 711,139 L 727,119 C 717,90 699,76 672,76 641,76 570,178 457,381 L 164,-76 C 142,-110 111,-127 72,-127 30,-127 9,-110 8,-76 1,-67 -2,-52 -2,-32 -2,-23 -1,-13 0,-2 Z"/>
  </g>
  <g id="bullet-char-template(10004)" transform="scale(0.00048828125,-0.00048828125)">
   <path d="M 285,-33 C 182,-33 111,30 74,156 52,228 41,333 41,471 41,549 55,616 82,672 116,743 169,778 240,778 293,778 328,747 346,684 L 369,508 C 377,444 397,411 428,410 L 1163,1116 C 1174,1127 1196,1133 1229,1133 1271,1133 1292,1118 1292,1087 L 1292,965 C 1292,929 1282,901 1262,881 L 442,47 C 390,-6 338,-33 285,-33 Z"/>
  </g>
  <g id="bullet-char-template(9679)" transform="scale(0.00048828125,-0.00048828125)">
   <path d="M 813,0 C 632,0 489,54 383,161 276,268 223,411 223,592 223,773 276,916 383,1023 489,1130 632,1184 813,1184 992,1184 1136,1130 1245,1023 1353,916 1407,772 1407,592 1407,412 1353,268 1245,161 1136,54 992,0 813,0 Z"/>
  </g>
  <g id="bullet-char-template(8226)" transform="scale(0.00048828125,-0.00048828125)">
   <path d="M 346,457 C 273,457 209,483 155,535 101,586 74,649 74,723 74,796 101,859 155,911 209,963 273,989 346,989 419,989 480,963 531,910 582,859 608,796 608,723 608,648 583,586 532,535 482,483 420,457 346,457 Z"/>
  </g>
  <g id="bullet-char-template(8211)" transform="scale(0.00048828125,-0.00048828125)">
   <path d="M -4,459 L 1135,459 1135,606 -4,606 -4,459 Z"/>
  </g>
 </defs>
 <defs class="TextEmbeddedBitmaps"/>
 <g>
  <g id="id2" class="Master_Slide">
   <g id="bg-id2" class="Background"/>
   <g id="bo-id2" class="BackgroundObjects"/>
  </g>
 </g>
 <g class="SlideGroup">
  <g>
   <g id="id1" class="Slide" clip-path="url(#presentation_clip_path)">
    <g class="Page">
     <g class="com.sun.star.drawing.ClosedBezierShape">
      <g id="id3">
       <path fill="rgb(0,0,0)" stroke="none" d="M 11606,8038 C 11606,8038 13400,7391 14403,8436 14403,8436 15555,8749 15451,8916 15346,9083 14824,9104 14678,9209 14531,9313 13707,9882 13528,10116 13331,10373 13003,10483 13532,11967 13686,12397 14448,14015 14887,14433 15325,14851 16276,15173 17645,15185 18067,15189 17896,15896 15994,15540 15994,15540 16074,15877 17204,16118 18751,16449 19061,16588 19024,16818 18954,17256 17122,16738 16871,16696 16871,16696 17117,17268 18779,17518 20056,17711 18866,18428 17436,17901 17436,17901 17925,18554 18460,18821 18901,19041 18796,19549 16788,18487 16788,18487 17651,19451 17708,19678 17799,20039 17029,19898 16203,18926 16203,18926 16118,19444 16819,20126 17195,20493 15953,20744 15242,19156 15242,19156 15541,20423 15349,20546 15091,20710 14720,19804 14573,19532 14427,19260 14421,19864 14246,19881 13791,20091 13696,19177 13696,19177 13696,19177 13080,19398 12601,18989 12340,18766 12128,18796 11857,18424 11733,18255 11209,17923 11146,17630 11083,17338 10498,17045 10435,16732 10373,16418 9997,16021 9976,15666 9955,15311 9573,15051 9662,14537 9698,14335 9553,13797 9495,13639 9398,13371 9119,13409 9098,13618 9077,13827 8008,17839 7403,18149 7095,18307 6820,17401 6820,17401 6820,17401 6384,18467 6143,18446 5648,18403 5796,17359 5755,17213 5713,17066 5356,18236 5005,18079 4668,17927 4773,16983 4793,16920 4814,16857 4305,17116 4165,16959 3998,16770 4083,16419 4083,16419 4083,16419 3080,16451 3393,15562 2993,15489 2996,15144 2996,14893 2538,14754 2558,14349 2558,14193 2433,14019 2240,13651 2433,13389 2153,13091 2153,12899 2287,12594 2118,12374 2130,11947 2281,11696 2432,11445 1847,10818 2495,10672 3142,10525 5564,11941 7438,11271 7683,11184 7803,10755 7803,10755 7803,10755 7552,10512 7573,10352 7594,10191 7018,10274 6883,9815 6817,9591 6388,9696 6277,9125 6204,8751 5723,8663 5734,8185 5737,8037 5216,7841 5358,7286 5421,7040 4900,6511 5148,6053 5212,5936 4941,5393 5044,5196 5163,4971 4848,4796 5044,4382 5160,4136 4981,3692 5232,3587 5483,3483 5050,2843 5483,2772 5845,2713 5408,1628 6005,1895 6441,2089 6193,1142 6549,871 6904,599 6841,1581 7196,1978 7551,2375 7384,432 7740,474 8095,516 7865,1330 8032,1895 8199,2459 8471,474 8889,599 9307,724 8952,1519 9161,2104 9370,2689 10017,745 10352,1163 10686,1581 9453,3190 9787,4110 9787,4110 10307,2555 10561,3086 10850,3693 9975,4323 10395,5583 10845,6931 11358,6825 11606,8038 Z"/>
      </g>
     </g>
    </g>
   </g>
  </g>
 </g>
</svg>