<?xml version="1.0" encoding="UTF-8"?>

<svg version="1.2" baseProfile="tiny" width="210mm" height="297mm" viewBox="0 0 21000 29700" preserveAspectRatio="xMidYMid" fill-rule="evenodd" stroke-width="28.222" stroke-linejoin="round" xmlns="http://www.w3.org/2000/svg" xmlns:ooo="http://xml.openoffice.org/svg/export" xmlns:xlink="http://www.w3.org/1999/xlink" xml:space="preserve">
 <defs class="ClipPathGroup">
  <clipPath id="presentation_clip_path" clipPathUnits="userSpaceOnUse">
   <rect x="0" y="0" width="21000" height="29700"/>
  </clipPath>
 </defs>
 <defs class="TextShapeIndex">
  <g ooo:slide="id1" ooo:id-list="id3 id4 id5 id6 id7 id8 id9 id10 id11 id12 id13 id14"/>
 </defs>
 <defs class="EmbeddedBulletChars">
  <g id="bullet-char-template(57356)" transform="scale(0.00048828125,-0.00048828125)">
   <path d="M 580,1141 L 1163,571 580,0 -4,571 580,1141 Z"/>
  </g>
  <g id="bullet-char-template(57354)" transform="scale(0.00048828125,-0.00048828125)">
   <path d="M 8,1128 L 1137,1128 1137,0 8,0 8,1128 Z"/>
  </g>
  <g id="bullet-char-template(10146)" transform="scale(0.00048828125,-0.00048828125)">
   <path d="M 174,0 L 602,739 174,1481 1456,739 174,0 Z M 1358,739 L 309,1346 659,739 1358,739 Z"/>
  </g>
  <g id="bullet-char-template(10132)" transform="scale(0.00048828125,-0.00048828125)">
   <path d="M 2015,739 L 1276,0 717,0 1260,543 174,543 174,936 1260,936 717,1481 1274,1481 2015,739 Z"/>
  </g>
  <g id="bullet-char-template(10007)" transform="scale(0.00048828125,-0.00048828125)">
   <path d="M 0,-2 C -7,14 -16,27 -25,37 L 356,567 C 262,823 215,952 215,954 215,979 228,992 255,992 264,992 276,990 289,987 310,991 331,999 354,1012 L 381,999 492,748 772,1049 836,1024 860,1049 C 881,1039 901,1025 922,1006 886,937 835,863 770,784 769,783 710,716 594,584 L 774,223 C 774,196 753,168 711,139 L 727,119 C 717,90 699,76 672,76 641,76 570,178 457,381 L 164,-76 C 142,-110 111,-127 72,-127 30,-127 9,-110 8,-76 1,-67 -2,-52 -2,-32 -2,-23 -1,-13 0,-2 Z"/>
  </g>
  <g id="bullet-char-template(10004)" transform="scale(0.00048828125,-0.00048828125)">
   <path d="M 285,-33 C 182,-33 111,30 74,156 52,228 41,333 41,471 41,549 55,616 82,672 116,743 169,778 240,778 293,778 328,747 346,684 L 369,508 C 377,444 397,411 428,410 L 1163,1116 C 1174,1127 1196,1133 1229,1133 1271,1133 1292,1118 1292,1087 L 1292,965 C 1292,929 1282,901 1262,881 L 442,47 C 390,-6 338,-33 285,-33 Z"/>
  </g>
  <g id="bullet-char-template(9679)" transform="scale(0.00048828125,-0.00048828125)">
   <path d="M 813,0 C 632,0 489,54 383,161 276,268 223,411 223,592 223,773 276,916 383,1023 489,1130 632,1184 813,1184 992,1184 1136,1130 1245,1023 1353,916 1407,772 1407,592 1407,412 1353,268 1245,161 1136,54 992,0 813,0 Z"/>
  </g>
  <g id="bullet-char-template(8226)" transform="scale(0.00048828125,-0.00048828125)">
   <path d="M 346,457 C 273,457 209,483 155,535 101,586 74,649 74,723 74,796 101,859 155,911 209,963 273,989 346,989 419,989 480,963 531,910 582,859 608,796 608,723 608,648 583,586 532,535 482,483 420,457 346,457 Z"/>
  </g>
  <g id="bullet-char-template(8211)" transform="scale(0.00048828125,-0.00048828125)">
   <path d="M -4,459 L 1135,459 1135,606 -4,606 -4,459 Z"/>
  </g>
 </defs>
 <defs class="TextEmbeddedBitmaps"/>
 <g>
  <g id="id2" class="Master_Slide">
   <g id="bg-id2" class="Background"/>
   <g id="bo-id2" class="BackgroundObjects"/>
  </g>
 </g>
 <g class="SlideGroup">
  <g>
   <g id="id1" class="Slide" clip-path="url(#presentation_clip_path)">
    <g class="Page">
     <g class="com.sun.star.drawing.ClosedBezierShape">
      <g id="id3">
       <path fill="rgb(0,0,0)" stroke="none" d="M 6302,6302 C 6495,6302 6652,6145 6652,5950 6652,5757 6495,5600 6302,5600 6107,5600 5950,5757 5950,5950 5950,6145 6107,6302 6302,6302 Z"/>
      </g>
     </g>
     <g class="com.sun.star.drawing.ClosedBezierShape">
      <g id="id4">
       <path fill="rgb(0,0,0)" stroke="none" d="M 1750,4552 C 1945,4552 2102,4395 2102,4200 2102,4007 1945,3850 1750,3850 1557,3850 1400,4007 1400,4200 1400,4395 1557,4552 1750,4552 Z"/>
      </g>
     </g>
     <g class="com.sun.star.drawing.ClosedBezierShape">
      <g id="id5">
       <path fill="rgb(0,0,0)" stroke="none" d="M 16450,2452 C 16645,2452 16802,2295 16802,2100 16802,1907 16645,1750 16450,1750 16257,1750 16100,1907 16100,2100 16100,2295 16257,2452 16450,2452 Z"/>
      </g>
     </g>
     <g class="com.sun.star.drawing.ClosedBezierShape">
      <g id="id6">
       <path fill="rgb(0,0,0)" stroke="none" d="M 18550,7002 C 18745,7002 18902,6845 18902,6650 18902,6457 18745,6300 18550,6300 18357,6300 18200,6457 18200,6650 18200,6845 18357,7002 18550,7002 Z"/>
      </g>
     </g>
     <g class="com.sun.star.drawing.ClosedBezierShape">
      <g id="id7">
       <path fill="rgb(0,0,0)" stroke="none" d="M 18550,19950 C 18357,19950 18200,20107 18200,20300 18200,20495 18357,20652 18550,20652 18745,20652 18902,20495 18902,20300 18902,20107 18745,19950 18550,19950 Z"/>
      </g>
     </g>
     <g class="com.sun.star.drawing.ClosedBezierShape">
      <g id="id8">
       <path fill="rgb(0,0,0)" stroke="none" d="M 7700,19250 C 7507,19250 7350,19407 7350,19600 7350,19795 7507,19952 7700,19952 7895,19952 8052,19795 8052,19600 8052,19407 7895,19250 7700,19250 Z"/>
      </g>
     </g>
     <g class="com.sun.star.drawing.ClosedBezierShape">
      <g id="id9">
       <path fill="rgb(0,0,0)" stroke="none" d="M 1400,13652 C 1595,13652 1752,13495 1752,13300 1752,13107 1595,12950 1400,12950 1207,12950 1050,13107 1050,13300 1050,13495 1207,13652 1400,13652 Z"/>
      </g>
     </g>
     <g class="com.sun.star.drawing.ClosedBezierShape">
      <g id="id10">
       <path fill="rgb(0,0,0)" stroke="none" d="M 20928,19388 L 17501,14961 17501,10852 14701,10852 14701,11344 13301,9535 13301,9100 12600,9100 12600,6300 11550,6300 11550,4200 12364,4200 11464,1050 10850,1050 10850,350 C 10850,156 10694,0 10500,0 10307,0 10150,156 10150,350 L 10150,1050 9536,1050 8636,4200 9450,4200 9450,6300 8400,6300 8400,9100 7700,9100 7700,9535 6300,11344 6300,10852 3500,10852 3500,14961 73,19388 C -31,19522 -23,19711 90,19836 158,19912 253,19952 350,19952 413,19952 477,19935 534,19899 L 3500,18059 3500,18552 3850,18552 3850,19952 4550,19952 4550,20652 C 4550,20846 4706,21002 4900,21002 5093,21002 5250,20846 5250,20652 L 5250,19952 5950,19952 5950,18552 6300,18552 6300,16321 7700,15452 7700,18202 9450,18202 9450,19252 10150,19252 10150,19602 C 10150,19795 10307,19952 10500,19952 10694,19952 10850,19795 10850,19602 L 10850,19252 11550,19252 11550,18202 13301,18202 13301,15452 14701,16321 14701,18552 15051,18552 15051,19952 15751,19952 15751,20652 C 15751,20846 15908,21002 16101,21002 16295,21002 16451,20846 16451,20652 L 16451,19952 17151,19952 17151,18552 17501,18552 17501,18059 20467,19899 C 20524,19935 20588,19952 20652,19952 20748,19952 20843,19912 20911,19836 21025,19711 21032,19522 20928,19388 Z M 16101,13302 C 16295,13302 16451,13458 16451,13652 16451,13845 16295,14002 16101,14002 15908,14002 15751,13845 15751,13652 15751,13458 15908,13302 16101,13302 Z M 16101,14352 C 16295,14352 16451,14508 16451,14702 16451,14895 16295,15052 16101,15052 15908,15052 15751,14895 15751,14702 15751,14508 15908,14352 16101,14352 Z M 16101,15402 C 16295,15402 16451,15559 16451,15752 16451,15945 16295,16102 16101,16102 15908,16102 15751,15945 15751,15752 15751,15559 15908,15402 16101,15402 Z M 16101,16452 C 16295,16452 16451,16609 16451,16802 16451,16995 16295,17152 16101,17152 15908,17152 15751,16995 15751,16802 15751,16609 15908,16452 16101,16452 Z M 12250,10150 C 12250,10344 12093,10502 11900,10502 11707,10502 11550,10344 11550,10150 11550,9957 11707,9800 11900,9800 12093,9800 12250,9957 12250,10150 Z M 10850,10150 C 10850,10344 10693,10502 10500,10502 10307,10502 10150,10344 10150,10150 10150,9957 10307,9800 10500,9800 10693,9800 10850,9957 10850,10150 Z M 9450,10150 C 9450,10344 9293,10502 9100,10502 8907,10502 8750,10344 8750,10150 8750,9957 8907,9800 9100,9800 9293,9800 9450,9957 9450,10150 Z M 9100,7000 L 11900,7000 11900,9100 9100,9100 9100,7000 Z M 4900,13302 C 5093,13302 5250,13458 5250,13652 5250,13845 5093,14002 4900,14002 4707,14002 4550,13845 4550,13652 4550,13458 4707,13302 4900,13302 Z M 4900,14352 C 5093,14352 5250,14508 5250,14702 5250,14895 5093,15052 4900,15052 4707,15052 4550,14895 4550,14702 4550,14508 4707,14352 4900,14352 Z M 4900,15402 C 5093,15402 5250,15559 5250,15752 5250,15945 5093,16102 4900,16102 4707,16102 4550,15945 4550,15752 4550,15559 4707,15402 4900,15402 Z M 4900,16452 C 5093,16452 5250,16609 5250,16802 5250,16995 5093,17152 4900,17152 4707,17152 4550,16995 4550,16802 4550,16609 4707,16452 4900,16452 Z M 6300,15497 L 6300,12488 7700,10679 7700,14627 6300,15497 Z M 8400,11202 L 12600,11202 12600,11902 8400,11902 8400,11202 Z M 9800,16452 C 9800,16066 10114,15752 10500,15752 10886,15752 11200,16066 11200,16452 L 11200,17502 9800,17502 9800,16452 Z M 10150,18202 L 10850,18202 10850,18552 10150,18552 10150,18202 Z M 13301,14627 L 13301,10679 14701,12488 14701,15497 13301,14627 Z"/>
      </g>
     </g>
     <g class="com.sun.star.drawing.ClosedBezierShape">
      <g id="id11">
       <path fill="rgb(0,0,0)" stroke="none" d="M 17502,9452 C 17502,8678 16874,8050 16102,8050 15328,8050 14700,8678 14700,9452 L 14700,10152 17502,10152 17502,9452 Z"/>
      </g>
     </g>
     <g class="com.sun.star.drawing.ClosedBezierShape">
      <g id="id12">
       <path fill="rgb(0,0,0)" stroke="none" d="M 6302,9452 C 6302,8678 5674,8050 4902,8050 4128,8050 3500,8678 3500,9452 L 3500,10152 6302,10152 6302,9452 Z"/>
      </g>
     </g>
     <g class="com.sun.star.drawing.TextShape">
      <g id="id13"/>
     </g>
     <g class="com.sun.star.drawing.TextShape">
      <g id="id14"/>
     </g>
    </g>
   </g>
  </g>
 </g>
</svg>